Video
Format : xvid
Codec ID : xvid
Duration : 1h 41mn
Bit rate : 810 Kbps
Width : 720 pixels
Height : 320 pixels
Display aspect ratio : 2.25:1
Frame rate : 29.970 fps
Bits/(Pixel*Frame) : 0.117
Stream size : 589 MiB (86%)

Audio
ID : 1
Format : MPEG Audio
Format version : Version 1
Format profile : Layer 3
Codec ID : 55
Codec ID/Hint : MP3
Duration : 1h 34mn
Bit rate mode : Constant
Bit rate : 128 Kbps
Channel(s) : 2 channels
Sampling rate : 48.0 KHz
Stream size : 86.2 MiB (13%)
Alignment : Aligned on interleaves
Interleave, duration : 36 ms (1.08 video frame)
Interleave, preload duration : 504 ms
Writing library : LAMELAME_MAJOR_VERSI
 
http://img230.imageshack.us/img230/5316/vlcsnap2010072301h49m03.png


ENJOY AND PLEASE SEED AND LEAVE COMMENTS